<?xml version="1.0" encoding="utf-8" ?><svg xmlns="http://www.w3.org/2000/svg" xmlns:xlink="http://www.w3.org/1999/xlink" width="1024" height="1024" viewBox="0 0 1024 1024"><path d="M573.106 343.724C579.839 343.098 589.519 343.207 596.158 344.317C602.391 345.36 605.831 346.74 609.432 351.827C609.711 360.844 608.672 369.137 608.083 378.101C606.733 396.332 605.481 414.57 604.328 432.815C603.914 440.244 602.905 453.16 604.057 459.898C620.648 436.226 648.75 426.764 675.098 441.225C693.221 451.639 701.791 475.761 703.97 495.528C708.214 534.034 706.328 574.003 705.395 612.672C705.034 627.628 687.08 626.686 676.726 625.981C670.121 625.532 664.951 624.948 659.063 621.031C654.031 612.122 656.244 591.233 656.717 580.624C657.174 569.672 657.419 558.712 657.452 547.75C657.668 531.017 658.281 509.744 652.021 494.007C647.847 483.517 634.033 481.35 624.642 486.603C600.052 500.356 602.811 533.143 603.231 557.075L603.575 590.93C603.666 599.19 605.607 619.73 594.786 622.847C587.594 624.919 560.632 628.729 558.445 617.702C553.946 595.026 554.974 570.177 554.899 547.001L554.915 469.892L555.376 401.659C555.592 387.78 554.725 359.612 560.573 347.816C565.318 344.66 567.444 344.76 573.106 343.724Z"/><path d="M159.184 356.572C165.62 356.124 176.754 356.513 181.011 362.177C183.512 365.628 182.21 370.239 181.754 374.143C180.689 383.252 180.045 392.975 178.47 401.982C204.956 408.86 225.869 425.505 230.089 453.923C232.081 467.337 228.913 491.208 211.313 491.791C205.119 492.22 190.018 491.92 185.576 487.164C175.665 476.55 190.94 456.247 176.558 445.492C160.526 433.503 139.441 445.805 129.304 459.621C114.686 479.543 109.342 505.935 112.216 530.205C114.861 552.451 129.228 582.965 156.245 578.067C168.685 576.122 177.084 567.252 181.063 555.717C184.033 547.385 186.035 538.038 196.684 537.113C205.747 536.326 217.495 538.119 224.736 543.829C225.232 545.839 225.681 548.508 226.097 550.59C223.307 569.505 219.471 581.834 206.53 596.739C193.788 611.415 180.812 615.902 162.804 620.897C160.527 633.175 163.245 653.145 155.441 662.641C149.616 669.729 123.674 669.543 123.342 656.111C123.043 643.992 125.319 631.555 126.136 619.201C49.9541 595.755 44.4811 493.468 85.2528 436.924C98.019 419.22 119.26 404.541 141.081 401.091C142.166 395.27 142.274 388.171 143.189 382.188C145.128 369.504 144.392 359.743 159.184 356.572Z"/><path d="M319.033 430.22C320.206 430.145 321.382 430.102 322.557 430.089C409.994 429.401 385.709 539.366 389.508 596.223C389.884 601.862 388.84 617.585 384.804 620.833C376.73 627.331 353.36 628.279 345.165 621.049C342.039 618.186 343.551 608.24 343.994 603.763C341.415 606.203 338.784 608.524 336.04 610.82C312.922 630.168 271.583 633.129 250.877 608.685C248.087 605.391 246.133 601.137 244.402 597.185C226.687 533.696 286.685 494.995 344.038 516.37C344.156 503.859 342.274 487.004 331.641 478.721C319.992 469.646 303.389 474.932 292.567 482.69C286.723 486.88 282.464 493.476 276.124 496.984C267.061 501.754 257.1 492.639 254.02 484.649C250.027 474.293 254.997 464.784 261.69 457.161C276.593 440.188 296.855 431.823 319.033 430.22ZM313.123 585.762C323.115 584.127 330.885 579.048 336.904 570.893C342.538 563.26 345.104 551.747 336.094 545.475C331.17 542.048 322.185 541.146 316.23 541.673C276.586 547.077 278.574 590.651 313.123 585.762Z"/><path d="M903.103 435.639C911.29 434.765 920.572 435.907 928.154 439.2C940.605 444.607 949.307 456.533 954.047 468.896C957.294 477.365 958.983 486.475 959.939 495.468C962.652 520.986 961.647 546.477 961.537 572.049C961.492 582.667 962.622 593.288 961.88 603.902C961.547 608.667 960.987 614.356 958.932 618.716C957.724 621.28 955.898 623.139 953.207 624.092C944.987 627.003 926.564 627.096 918.769 622.946C915.573 621.244 913.656 618.947 912.845 615.403C910.743 606.214 912.331 595.399 912.659 586.001C913.309 567.357 914.893 516.707 909.708 501.192C907.662 495.069 903.919 488.37 897.86 485.527C893.461 483.463 888.532 483.944 884.142 485.77C875.193 489.492 868.746 498.662 865.278 507.374C857.419 529.54 863.468 609.177 856.352 619.095C853.901 622.511 849.294 623.91 845.32 624.373C835.241 625.546 820.606 626.512 812.302 619.843C808.695 612.527 809.983 601.331 810.242 593.262C810.648 582.762 810.891 572.257 810.969 561.75L811.074 503.951C811.003 489.934 810.813 475.775 810.956 461.796C811.01 456.569 811.794 444.34 816.069 440.968C822.057 436.247 838.098 436.594 845.459 437.412C849.638 437.877 855.253 438.662 857.742 442.178C861.662 447.718 859.678 459.61 858.744 466.052C869.888 446.574 881.506 439.404 903.103 435.639Z"/><path d="M480.367 430.69C490.513 429.574 500.775 431.042 510.201 434.958C533.973 444.979 552.183 476.396 535.759 503.248C531.144 510.794 494.908 513.9 497.93 495.844C498.509 492.386 496.273 481.543 492.962 479.479C478.811 471.892 467.416 485.167 462.589 494.98C452.261 515.977 446.992 560.216 467.091 576.411C471.011 579.538 475.745 581.477 480.732 581.997C501.568 584.315 508.94 562.042 519.642 561.137C524.964 560.686 529.439 564.026 533.198 567.359C536.106 569.534 538.537 574.712 539.041 578.38C540.198 586.056 537.435 592.172 533.363 598.343C513.002 629.199 467.354 637.552 437.798 614.442C392.605 579.104 399.431 499.06 431.815 457.304C444.95 440.368 459.486 433.399 480.367 430.69Z"/><path d="M755.266 443.701C764.855 442.981 777.954 442.017 784.841 449.669C785.062 451.1 785.215 452.541 785.3 453.987C785.922 464.503 784.847 476.432 784.173 487.046C783.106 502.853 782.29 518.676 781.724 534.508C781.043 559.622 782.588 584.824 781.533 609.932C781.024 622.051 771.963 625.256 761.395 625.565C754.773 626.402 740.721 626.391 735.486 622.093C729.548 617.219 731.493 596.781 731.725 589.584L732.86 552.617L733.83 494.952C733.988 485.638 733.575 476.673 734.338 467.318C735.857 448.712 736.036 445.924 755.266 443.701Z"/><path d="M759.937 363.247C776.371 361.73 790.941 373.779 792.538 390.205C794.135 406.632 782.157 421.261 765.739 422.938C749.207 424.626 734.454 412.548 732.846 396.008C731.239 379.468 743.389 364.774 759.937 363.247Z"/></svg>